<?xml version="1.0" encoding="utf-8"?>
<!-- Generator: Adobe Illustrator 23.0.1, SVG Export Plug-In . SVG Version: 6.00 Build 0)  -->
<svg version="1.1" id="Layer_1" xmlns="http://www.w3.org/2000/svg" xmlns:xlink="http://www.w3.org/1999/xlink" x="0px" y="0px"
	 viewBox="0 0 2000 2000" style="enable-background:new 0 0 2000 2000;" xml:space="preserve">
<style type="text/css">
	.st0{fill:#F7A041;}
	.st1{fill:#FFCC99;}
	.st2{fill:#CC9966;}
	.st3{fill:#2B9984;}
	.st4{fill:#30AA93;}
	.st5{fill:#258472;}
	.st6{fill:#2DA08A;}
	.st7{fill:#2FB299;}
	.st8{fill:#CCCC99;}
	.st9{fill:#996633;}
	.st10{fill:#EDEDED;}
	.st11{fill:#FFFFFF;}
</style>
<path class="st0" d="M622.92,701.97c1.47-17.75,8.68-36.16,18.44-53.7c16.69-30.02,37.76-56.47,66.18-76.07
	c9.52-6.56,20.75-11.25,31.86-14.7c9.54-2.97,15.39,1.53,16.02,11.59c0.55,8.67,0.04,17.96-2.55,26.18
	c-15.57,49.47-45.31,88.67-88.3,117.64c-5.72,3.85-12.29,6.82-18.87,8.96C630.06,726.94,622.67,721.05,622.92,701.97z"/>
<g>
	<path class="st0" d="M560.95,235.57c-1.17,23.84-9.15,45.75-19.89,66.66c-22.58,43.92-52.34,82.16-93.08,110.6
		c-12.1,8.45-26.22,14.87-40.32,19.4c-17.76,5.7-28.63-3.33-29.54-22.06c-1.05-21.54,5.56-41.45,14.36-60.6
		c23.96-52.11,58.02-96.11,106.47-127.7c9.93-6.47,21.51-11.43,33.02-14.24c18.4-4.48,28.06,4.13,28.97,23.1
		C561.01,232.34,560.95,233.95,560.95,235.57z"/>
	<path class="st0" d="M394.1,433.46c-13.16,0.34-24.18-4.59-34.7-10.53c-35.72-20.16-62.8-49.5-86-82.66
		c-19.41-27.74-35.19-57.33-41.2-91.14c-1.3-7.33-1.46-15.03-0.92-22.47c1.05-14.65,9.92-21.63,24.56-19.8
		c20.56,2.57,37.3,13.55,52.95,25.93c38.65,30.56,68.04,68.62,88.8,113.25c1.57,3.38,1.55,8.36,0.39,12
		C390.15,382.71,384.98,407.42,394.1,433.46z"/>
	<path class="st1" d="M397.21,293.49c-14.88-20.35-30.74-41.95-46.43-63.68c-1.26-1.75-2.02-4.46-1.78-6.59
		c3.12-27.65,8.59-54.71,22.42-79.28c3.25-5.78,7.39-11.31,12.1-15.96c9.11-9,18.35-8.8,27.71,0.02
		c10.88,10.24,17.52,23.38,21.46,37.33c5.24,18.54,8.77,37.57,12.75,56.45c0.49,2.32-0.04,5.57-1.4,7.45
		C428.26,251.17,412.23,272.94,397.21,293.49z"/>
</g>
<g>
	<path class="st0" d="M830.84,269.04c0.99-19.51,9.26-41.57,20.14-62.72c22.22-43.17,51.52-80.74,91.32-108.97
		c12.26-8.7,26.52-15.47,40.83-20.14c18.87-6.15,30.21,3.52,30.52,23.4c0.39,25.5-8.59,48.56-19.85,70.69
		c-21.89,43-51.11,80.29-90.35,108.82c-11.16,8.11-23.76,14.96-36.68,19.78C842.97,308.78,830.65,299.13,830.84,269.04z"/>
	<path class="st0" d="M810.96,302.45c-13.75,0.29-24.69-4.87-35.23-10.77c-29.13-16.33-52.39-39.39-72.82-65.39
		c-23.45-29.85-42.96-61.98-51.73-99.37c-2.47-10.54-3.09-21.86-2.43-32.69c0.79-13.12,8.68-18.97,21.75-18.43
		c14.21,0.58,26.6,6.74,38.11,14.22c48.31,31.42,82.4,75.03,106.72,126.69c1.36,2.89,0.76,7.33-0.29,10.62
		c-6.85,21.48-11.73,43.08-6.62,65.72C809.07,295.91,809.95,298.72,810.96,302.45z"/>
	<path class="st1" d="M830.73,187.38c-14.61-20.04-30.32-41.46-45.83-63.02c-1.42-1.97-2.52-4.89-2.28-7.22
		c2.88-28,8.71-55.26,22.71-80.05c3.38-5.99,7.9-11.63,12.92-16.34c7.99-7.51,17.75-7.94,25.1,0.34
		c7.71,8.69,15.61,18.54,19.16,29.3c7.11,21.56,11.4,44.05,16.59,66.22c0.47,2.01-0.35,4.9-1.6,6.63
		C861.66,145.19,845.64,167,830.73,187.38z"/>
</g>
<path class="st0" d="M598.85,723.62c-6.07-2.54-12.51-4.45-18.16-7.72c-36.31-20.98-61.97-52.08-80.67-88.83
	c-7.08-13.91-11.17-29.49-15.43-44.65c-2.23-7.94-2.66-17.37,4.87-23.15c7.31-5.61,15.62-1.9,22.96,1.32
	c27.16,11.89,47.47,32.25,64.84,55.4c10.25,13.67,18.41,28.93,27.17,43.68c1.3,2.19,1.68,5.78,0.91,8.23
	c-5.56,17.58-9.59,35.23-4.87,53.84C599.93,722.37,599.39,722.99,598.85,723.62z"/>
<path class="st1" d="M620.07,633.2c-10.29-13.98-21.31-28.82-32.12-43.81c-1.1-1.53-1.44-4.06-1.23-6.03
	c2.19-20.19,6.53-39.83,16.67-57.68c11.01-19.38,22.19-19.46,33.23-0.23c10.37,18.06,14.67,38,16.94,58.44
	c0.21,1.9-0.5,4.32-1.63,5.89C641.25,604.56,630.37,619.22,620.07,633.2z"/>
<path class="st2" d="M590.07,925.07c42.04,39.92,92.69,51.47,144.89,58.53c63.02,8.53,126.16,4.4,189.38,1.58
	c45.92-2.05,92.01-0.51,138.03-0.46c14.26,0.01,28.52,0.38,42.78,0.56c3.93,0.05,7.86,0.01,13.56,0.01
	c-8.31,9.43-15.81,17.02-22.25,25.41c-21.3,27.75-41.85,56.09-63.44,83.61c-10.09,12.85-21.79,24.46-33.04,36.37
	c-2.71,2.87-6.32,5.05-9.82,6.99c-9.44,5.24-16.66,3.71-23.38-4.82c-5.83-7.4-10.83-15.57-17.36-22.26
	c-5.82-5.96-12.68-11.5-20.09-15.2c-13.7-6.85-17.55-10.83-16.33-21.65c1.29-11.39,10.02-20.34,22.19-22.37
	c3.95-0.66,8.02-0.54,12.02-0.9c6.84-0.63,11-4.33,11.47-11.25c0.47-6.89-3.08-11.98-9.75-12.77c-19.04-2.26-35.99,2.89-48.6,17.85
	c-12.13,14.39-15.87,30.95-8.96,49c5.06,13.23,16.9,18.79,28.55,24.64c3.9,1.96,7.69,4.79,10.49,8.11
	c7.3,8.62,13.73,17.97,21.03,26.59c12.09,14.29,27.86,18.53,44.1,9.84c14.03-7.51,25.42-4.12,37.75,3.12
	c10.09,5.92,20.49,12.27,31.61,15.29c16.82,4.57,38.7-8.84,48.82-27.39c9.78-17.93,7.82-37.8-5.12-51.76
	c-5.12-5.53-12.05-6.62-17.29-2.71c-5.81,4.33-6.55,11.1-1.95,17.87c10.55,15.54,3.2,35.34-15.19,39.36
	c-4.19,0.91-9.64-0.68-13.62-2.79c-9.95-5.27-19.4-11.5-29.56-17.65c5.84-7.03,12.07-14,17.72-21.4c23-30.18,45.81-60.5,68.72-90.75
	c1.62-2.14,3.55-4.05,5.18-6.19c17.66-23.17,39.58-33.68,70.1-32.57c54.32,1.98,108.69-1.47,162.2-12.57
	c19.79-4.11,39.29-9.55,56.32-21c7.05-4.74,13.22-10.77,21.45-17.58c-2.07,11.82-3.72,22.2-5.7,32.51
	c-13.96,72.44-31.8,143.8-59.88,212.25c-27.57,67.22-62.87,129.63-113.84,182.28c-53.02,54.77-116.56,89.6-191.55,104.73
	c-30.18,6.09-59.44,16.71-89.16,25.11c-23.61,6.67-47.3,12.75-72.25,8.82c-13.3-2.1-24.98-7.56-36.22-14.85
	c-76.3-49.51-130.54-118.62-174.71-196.58c-42.91-75.73-75.79-155.53-95.23-240.57c-6.92-30.26-11.09-60.93-8.95-92.06
	C585.85,945.88,588.18,936.5,590.07,925.07z M924.63,1224.4c-8.56,0.8-17.14,1.48-25.69,2.42c-26.72,2.93-53.4,6.21-80.15,8.81
	c-9.9,0.96-15.59,4.71-15.57,12.47c0.02,7.67,6.02,12.71,15.74,12.07c16.09-1.07,32.16-2.54,48.19-4.25
	c17.37-1.86,34.69-4.23,52.04-6.3c10.81-1.29,19.74,0.61,26.07,11.22c6.83,11.45,18.13,17.77,31.27,19.14
	c8.17,0.85,16.59-0.28,24.87-0.88c12.59-0.91,13.08-1.04,18.14,10.79c8.56,20,16.63,40.2,25.06,60.25
	c3.61,8.58,10.34,11.92,17.07,8.91c6.96-3.1,9.02-9.71,5.57-18.46c-4.54-11.5-8.71-23.17-13.97-34.34
	c-6.17-13.1-13.07-25.87-20.13-38.52c-6.6-11.84-17.58-14.97-30.33-13.7c-4.55,0.45-9.14,0.67-13.64,1.45
	c-11.43,1.97-20.09-2.17-26.19-11.71C953.98,1229.69,941.15,1223.59,924.63,1224.4z M967.24,1389.53
	c8.03-0.75,15.18-0.58,21.89-2.23c12.73-3.13,25.38-6.82,37.74-11.2c8.6-3.05,11.61-10.4,8.55-17.21
	c-2.89-6.43-9.83-8.47-17.96-5.27c-2,0.79-3.97,1.64-5.98,2.42c-58.11,22.38-124.31-3.9-149.84-59.48
	c-5.4-11.75-11.42-15.43-18.99-11.6c-7.42,3.75-8.77,11.22-2.95,22.46C866.69,1359.52,910.1,1385.96,967.24,1389.53z
	 M909.29,1287.36c-1.43,1.77-5.16,4.39-5.81,7.64c-1.16,5.76,3.68,7.8,8.54,8.35c26.33,2.98,48.99,13.19,66.75,33.32
	c3.53,4,7.94,5.03,11.95,1.12c3.72-3.63,2.64-7.74-0.6-11.44C969.43,1302.64,942.66,1291.26,909.29,1287.36z"/>
<path class="st3" d="M1302.3,557.11c-51.73-19.34-97.05-47.52-130.97-91.75c-29.68-38.7-46.28-82.93-55.75-132.3
	C1203.94,387.66,1263.11,463.97,1302.3,557.11z"/>
<path class="st4" d="M1301.44,216.14c47.2-2.85,100.28,34.4,116.28,81.15C1362.42,289.64,1315.31,258.57,1301.44,216.14z"/>
<path class="st5" d="M981.45,420.06c4.12,29.91,17.67,98.51,71.1,164.83c55.76,69.2,123.46,96.83,151.9,106.65
	c-13.46-38.32-38.91-96.18-87.26-155.13C1068.58,477.14,1016.5,440.76,981.45,420.06z"/>
<path class="st6" d="M1383.37,431.17c-13.41-0.76-62.89-5.2-103.42-45.25c-28.31-27.96-38.34-59.55-42.02-74.34
	c16.61,2.05,46.86,8.12,77.57,29.09C1361.09,371.79,1378.11,415.54,1383.37,431.17z"/>
<path class="st7" d="M1415.66,181.64c-21.98,2.06-42.99,0.03-62.33-9.4c-16.92-8.25-29.91-20.57-41.09-35.85
	c9.51-1.27,21.4-1.75,34.45,0.48C1387.68,143.88,1409.31,172.42,1415.66,181.64z"/>
<path class="st3" d="M1355.72,579.76c80.69-45.89,165.98-56.41,257.66-33.51C1531.57,598.63,1444.24,593.59,1355.72,579.76z"/>
<path class="st4" d="M1596.73,252.97c-22.47,36.03-80.81,57.69-128.07,47.42C1506.32,269.7,1547.23,250.79,1596.73,252.97z"/>
<path class="st5" d="M1252.93,707.71c35.2-17.21,88.54-38.22,156.35-47.03c81.31-10.56,148.29,1,189.47,11.48
	c-29.03,18.43-86.11,49.28-164.83,58.18C1350.9,739.71,1285.42,719.96,1252.93,707.71z"/>
<path class="st6" d="M1438.31,440.86c14.87-13.89,46.28-39.41,93.73-51.71c35.71-9.26,66.27-7.33,84.96-4.65
	c-10.92,12.67-29.06,30.24-55.87,43.43C1507.29,454.42,1455.74,444.91,1438.31,440.86z"/>
<path class="st7" d="M1469.98,177.53c12.08,0.49,28.41-1.18,45.92-10.04c14.34-7.25,24.11-16.61,31.49-23.78
	c13.01-12.64,22-25.38,27.71-34.56c-8.84-0.7-44.33-2.31-76.19,27.32C1483.58,150.72,1474.74,166.95,1469.98,177.53z"/>
<path class="st8" d="M473.02,549.38c-2.82-6.76-7.43-16.33-14.78-26.67c-6.76-9.51-12.97-15.64-21.4-23.78
	c-10.95-10.57-24.4-23.33-40.09-37.71c7.64-1.76,15.29-3.51,22.93-5.27c16.93,14.81,30.33,27.81,40.09,37.71
	c11.02,11.17,17.12,18.5,21.4,23.78c6.45,7.94,11.5,14.95,15.12,20.21c-2.27-0.17-7.44-0.24-13.08,2.55
	C477.36,543.1,474.24,547.46,473.02,549.38z"/>
<path class="st8" d="M682.41,557.57c4.15-5.62,10.91-14.72,19.39-25.86c23.73-31.14,32.35-40.28,45.24-59.1
	c13.95-20.36,23.34-36.67,25.87-41.09c13.33-23.37,30.86-58.81,45.25-106.65c8.62,0,17.24,0,25.86,0
	c-9.54,35.93-21.68,65.27-32.32,87.26c-19.27,39.82-41.05,69.19-56.07,89.5c-7.34,9.93-13.72,18-18.26,23.62
	c-8.11,2.57-18.23,6.57-29.09,12.93C697.21,544.65,688.66,551.66,682.41,557.57z"/>
<path class="st4" d="M495.08,421.82"/>
<path class="st2" d="M1443.13,1020.83c2.68-13.82,5.35-27.63,8.03-41.45c6.92-3.16,33.62-14.37,63.08-3.8
	c27.8,9.98,42.65,33.84,48.48,48.48c29.3,73.56-67.85,168.47-77.57,177.76c-47.42,45.32-101.23,65.15-138.97,74.34
	c7.54-11.85,15.08-23.7,22.62-35.55c33.73-14.25,113.93-53.82,138.97-132.51c5.6-17.6,20.24-63.6-3.23-84.03
	C1484.32,1006.47,1448.54,1018.88,1443.13,1020.83z"/>
<path class="st9" d="M1452.83,1043.46c4.22-1.89,12.68-5.55,22.62-3.23c8.76,2.04,14.43,7.72,16.16,9.7
	c17.79,20.37-6.25,79.97-38.78,116.35c-11.79,13.19-23.39,21.85-29.09,25.86c-17.29,12.14-33.67,18.84-45.25,22.62
	c4.34-7,8.68-14.54,12.93-22.62c2.3-4.39,4.45-8.7,6.46-12.93c6.3-3.09,15.67-8.23,25.86-16.16c15.61-12.15,37-33.84,32.32-42.02
	c-4.01-7-22.82,3.41-32.32-6.46c-8.75-9.09-2.49-28.01,0-35.55C1425.4,1074,1432.48,1052.59,1452.83,1043.46z"/>
<path class="st10" d="M1401.19,1507.27c0,0-39.35-12.24-154.24-26.14c-30.58-3.7-48.73-5.28-55.8-5.89
	c-12.65-1.09-25.83-2.07-39.45-2.95c-19.64,10.39-40.31,18.94-62.03,25.64c7.63,0.45,15.05,0.94,22.22,1.47
	c4.74,0.35,16.91,1.27,37.4,3.41c77.02,8.04,103.4,15.1,103.4,15.1c24.69,6.13,18.95,9.03,17.31,9.76c-0.34,0.15-0.73,0.3-1.14,0.45
	c-1.1,0.75-2.07,1.44-3.18,2.12c-9.37,5.7-21.35,11.31-40.18,16.67c-18.5,5.26-42.17,10.13-76.35,14.2
	c-35.55,4.23-78.16,6.87-128.43,7.93c-20.23,0.43-39.85,1.21-59.77,1.82c-15.83,0.48-31.71,0.92-48.43,0.57
	c-8.91-0.19-16.75-0.64-24.28-1.24c-51.13-4.05-87.48-9.61-117.07-15.86c-28.74-6.07-50.77-12.43-63.78-19.19
	c-3.94-2.05-6.53-4.12-6.32-6.21c-0.01-0.03,0-0.06,0-0.08c0-0.03,0-0.07,0-0.1c-0.17-1.83,2.42-3.62,6.35-5.39
	c13.04-5.87,35.11-11.35,63.88-16.53c13.74-2.47,28.96-4.81,46.41-6.93c-11.02-8.88-21.54-18.21-31.59-27.95
	c-40.89,4.76-74.16,10.35-103.07,16.42c-42.93,9.01-75.85,18.53-95.31,28.73c-5.87,3.08-9.74,6.19-9.48,9.36
	c-0.01,0.06,0,0.11,0,0.17c0.01,0.05-0.01,0.1,0,0.15c-0.31,3.62,3.55,7.21,9.43,10.77c19.4,11.72,52.26,22.76,95.14,33.27
	c44.13,10.82,98.35,20.45,174.63,27.45c11.23,1.03,22.92,1.81,36.21,2.14c24.95,0.61,48.64-0.16,72.25-1.01
	c29.73-1.07,58.99-2.45,89.17-3.2c74.99-1.87,138.55-6.48,191.59-13.85c50.99-7.09,86.31-15.56,113.91-24.71
	c28.1-9.32,45.98-19.06,59.96-28.96c1.67-1.18,3.11-2.38,4.75-3.68c0.61-0.26,1.19-0.52,1.7-0.79
	C1429.45,1522.93,1438.02,1517.88,1401.19,1507.27z"/>
<g>
	<g>
		<path class="st11" d="M1269.78,1030.88c-24.66-11.2-39.6-27.4-48.72-38.43c-14.2-17.18-26.34-38.73-36.4-64.62l-2.66-6.84
			l6.93-2.42c52.47-18.3,97.1-18.95,133.64-2.09c0,0,12.38,6.17,28.28,19.96c6.74,5.84,31.75,28.03,49.42,65.62
			c0.34,0.72,1.82,3.27,3.1,6.93c2.14,6.14,4.1,11.77,1.74,16.2c-1.95,3.66-6.13,5.02-14.48,7.75c-4.58,1.49-8.23,2.13-8.99,2.31
			C1378.3,1036.04,1322.41,1048.42,1269.78,1030.88z M1200.37,930.21c18.76,44.25,43.85,73.49,75.65,87.92c0,0,0,0,0,0
			c0,0,35.1,17.26,95.26,4.96c0.34-0.07-0.06,0.01,5.96-1.4c8.92-2.09,10.39-2.41,11.41-3.81c0.54-0.74,2.04-3.28-0.42-9.25
			c0,0-2.67-5.71-5.51-11.03c-25.8-48.33-66.37-68.38-66.37-68.38C1264.09,903.39,1208.9,926.49,1200.37,930.21z"/>
	</g>
</g>
<path class="st11" d="M1312.43,929.35c-19.53-9.01-42.67-0.49-51.69,19.04c-9.01,19.53-0.49,42.67,19.04,51.69
	c19.53,9.01,42.67,0.49,51.69-19.04C1340.49,961.5,1331.96,938.36,1312.43,929.35z"/>
<path class="st8" d="M1435.26,135.29c-2.15,10.77,0.93,113.36-1.05,145.78c-0.12,1.99-2.9,42.12-11.88,80.45
	c0,0-2.67,10.81-5.84,21.2c-17.05,56.02-59.4,116.36-71.73,133.94c-30.21,43.06-60.09,86.36-90.5,129.28
	c-52.08,73.52-57.78,81.64-67.87,96.96c-17.77,26.96-42.73,65.01-71.1,116.35c-17.7,32.03-34.18,62.06-49.86,96.82h31.67
	c10.97-25.93,26.17-58.27,47.28-96.82c39.93-72.94,76.23-122.92,116.35-177.76c75.52-103.22,122.37-155.13,166.76-257.82
	c6.35-14.7,10.19-27.26,11-29.82c15.89-50.14,16.18-91.46,16.16-119.58C1454.63,240.76,1451.22,192.32,1435.26,135.29z"/>
<path class="st8" d="M864.89,961.56c-6.91-14.45-15.05-26.98-26.37-39.26c-2.87-3.11-5.15-5.31-9.7-9.7
	c-37-35.7-56.76-42.17-100.19-74.34l0,0c-22.45-16.03-46.87-36.18-71.1-61.41c-9.43-9.82-18.03-19.57-25.86-29.09
	c-7.54,1.08-15.08,2.15-22.62,3.23c1.49,2.3,3.71,5.68,6.46,9.7c15,21.9,39.12,54.3,77.57,87.26
	c23.5,20.15,104.2,70.15,117.73,86.02c5.92,6.95,11.61,14.84,17.89,27.57H864.89z"/>
<path class="st9" d="M787.62,944.38c-5.41-6.57-21.44-19.15-40.81-33.56c-17.72,2.97-29.87,5.21-45.38,9.04
	c-21.53,5.31-39.04,11.08-51.1,15.39c16.34,6.67,36.4,13.37,59.72,18.13c20.99,4.28,40.02,6.05,56.23,6.54
	c10.93,0.24,21.87,0.48,32.8,0.72C795.32,954.27,791.54,949.15,787.62,944.38z"/>
<path class="st9" d="M1079.01,884.72c-23.94-6.54-77.93-19.37-132.99-14.41c-15.35,1.38-41.51,6-67.35,11.66
	c-18.19,3.99-33.24,7.97-43.91,10.98c8.62,7.49,18.81,17.63,28.73,30.87c9.55,12.75,16.27,24.91,20.99,35
	c45.28-1.58,123.28-3.9,158.7-4.79c5.2-10.98,10.73-22.2,16.62-33.63C1066.18,908.02,1072.6,896.13,1079.01,884.72z"/>
<path class="st9" d="M1119.06,957.4c62.81,1.11,124.85,2.41,187.96-4.18c-20.69-13.1-107.9-40.06-162.05-51.7
	C1134.74,922.05,1126.19,940.67,1119.06,957.4z"/>
<path class="st9" d="M678.49,860.58c-14.53,5.19-13.95,4.06-23.97,7.58c-19.72,6.92-37.75,17.46-53,35.2
	c7.49,6.76,14.44,13.37,21.83,19.44c1.56,1.29,5.17,1.61,7.05,0.71c25.58-12.25,74.29-24.88,93.44-29.6
	C707.99,882.35,691.83,870.64,678.49,860.58z"/>
<path class="st9" d="M657.67,841.69c-9.16-7.79-17.54-15.47-25.28-22.97c-15.36,8.29-27.72,19.19-37.24,32.6
	c-6.26,8.81-5.62,17.09-1.37,27.12c21.2-10.78,44.49-21.38,69.87-31.22c0.2-0.08,0.4-0.15,0.6-0.23
	C661.77,845.07,659.55,843.28,657.67,841.69z"/>
<path class="st9" d="M1095.49,858.47c6.85-15.36,13.53-29.74,19.95-43.1c-3.82-1.21-6.11-1.95-6.1-2.01
	c-40.21-12.23-96.84-23.38-164.1-17.43c-37.96,3.35-147.14,32.42-165.99,37.14c0,0-5.36,1.37-12.46,3.33
	c16.49,14.16,29.54,24.14,42.36,35.1c20.78-4.55,49.87-10.88,50.63-11.1c6.99-2,87.43-19.3,142.16-17.1
	c4.89,0.2,8.37,0.51,15.35,1.15c31.68,2.89,78.08,13.87,78.06,13.98C1095.4,858.45,1095.44,858.46,1095.49,858.47z"/>
<path class="st9" d="M1226.46,850.14c-12.49-3.56-30.69-8.36-47.22-12.66c-6.71,11.74-13.43,23.88-20.19,36.65
	c-0.89,1.68-1.74,3.32-2.61,4.98c66.88,13.78,131.92,33.51,193.98,62.94c2.49,1.18,5.94,2.18,8.35,1.41
	c11.69-3.73,23.18-8.1,34.74-12.24c0.21-1.23,0.42-2.46,0.63-3.69c-10.17-7.31-19.89-15.37-30.58-21.81
	C1320.82,879.97,1274.11,863.7,1226.46,850.14z"/>
<path class="st9" d="M1111.71,789.46c4.06,1.18,8.05,2.31,12.01,3.41c8.68-17.41,16.73-32.84,23.9-46.37
	c-10-3.11-16.65-5.04-16.88-5.03c-46.36-12.15-109.47-22.16-183.66-14.87c-39.41,3.87-74.58,11.89-104.78,21.27
	c-0.01-0.12-5.56,1.66-8.22,2.63c-4.09,1.34-11.92,4.25-11.89,4.33c-44.97,16.37-63.47,22.89-71.55,25.61
	c-10.95,3.68-15.1,5.16-23.4,8.19c-4.45,1.62-7.82,2.88-10.49,3.89c9.94,10.21,19.77,19.51,29.32,28.02
	c34.3-13.81,66.37-22.69,94.9-28.4c1.2,0.15,94.78-22.6,140.82-22.47c28.94,0.08,51.68,1.82,71.33,5.02
	C1075.81,778.38,1111.77,789.27,1111.71,789.46z"/>
<path class="st9" d="M1394.25,841.41c-32.02-22.39-68.13-36.69-104.11-50.99c-17.75-7.06-44.69-15.09-68.69-21.7
	c-9.57,14.58-19.09,29.61-28.59,45.44c6.94,1.69,13.81,3.46,20.62,5.41c71.94,20.57,143.83,41.47,202.52,91.9
	c15.47-15.5,17.01-30.78,3.03-47.37C1411.87,855.58,1403.37,847.78,1394.25,841.41z"/>
<g>
	<g>
		<path d="M229.18,1841.84c-14.4,0-27.23-3.28-38.47-9.85c-11.25-6.57-20.07-15.48-26.46-26.73c-6.39-11.25-9.58-23.98-9.58-38.2
			c0-14.58,3.15-27.54,9.45-38.88c6.3-11.34,14.94-20.2,25.92-26.59c10.98-6.39,23.58-9.58,37.8-9.58c10.62,0,20.34,2.02,29.16,6.08
			c8.82,4.05,16.74,10.12,23.76,18.22c2.52,2.88,3.42,5.85,2.7,8.91c-0.72,3.06-2.7,5.76-5.94,8.1c-2.52,1.8-5.31,2.39-8.37,1.75
			c-3.06-0.63-5.85-2.2-8.37-4.72c-8.82-9.36-19.8-14.04-32.94-14.04c-9.18,0-17.28,2.12-24.3,6.34
			c-7.02,4.23-12.51,10.12-16.47,17.68c-3.96,7.56-5.94,16.47-5.94,26.73c0,9.72,2.02,18.36,6.07,25.92
			c4.05,7.56,9.67,13.55,16.87,17.95c7.2,4.41,15.57,6.62,25.11,6.62c6.3,0,11.83-0.76,16.61-2.29c4.77-1.53,9.13-3.92,13.09-7.16
			c2.88-2.34,5.85-3.64,8.91-3.92c3.06-0.27,5.76,0.59,8.1,2.57c3.06,2.52,4.77,5.36,5.13,8.5c0.36,3.15-0.72,5.99-3.24,8.5
			C264.82,1835.81,248.62,1841.84,229.18,1841.84z"/>
		<path d="M386.04,1841.84c-14.58,0-27.45-3.19-38.61-9.58c-11.16-6.39-19.94-15.21-26.33-26.46c-6.39-11.25-9.58-24.16-9.58-38.74
			c0-14.76,3.19-27.76,9.58-39.01c6.39-11.25,15.16-20.07,26.33-26.46c11.16-6.39,24.03-9.58,38.61-9.58
			c14.4,0,27.18,3.2,38.34,9.58c11.16,6.39,19.93,15.21,26.32,26.46c6.39,11.25,9.58,24.26,9.58,39.01c0,14.58-3.15,27.5-9.45,38.74
			c-6.3,11.25-15.03,20.07-26.19,26.46C413.49,1838.65,400.62,1841.84,386.04,1841.84z M386.04,1817.54
			c9.36,0,17.64-2.16,24.84-6.48c7.2-4.32,12.83-10.26,16.88-17.82s6.07-16.29,6.07-26.19c0-9.9-2.02-18.67-6.07-26.32
			c-4.05-7.65-9.68-13.63-16.88-17.96c-7.2-4.32-15.48-6.48-24.84-6.48c-9.36,0-17.64,2.16-24.84,6.48
			c-7.2,4.32-12.87,10.31-17.01,17.96c-4.14,7.65-6.21,16.43-6.21,26.32c0,9.9,2.07,18.63,6.21,26.19
			c4.14,7.56,9.81,13.5,17.01,17.82C368.4,1815.38,376.68,1817.54,386.04,1817.54z"/>
		<path d="M509.7,1841.03c-3.96,0-7.25-1.3-9.85-3.92c-2.61-2.61-3.92-5.89-3.92-9.85v-120.15c0-4.14,1.3-7.47,3.92-9.99
			c2.61-2.52,5.89-3.78,9.85-3.78c4.14,0,7.47,1.26,9.99,3.78c2.52,2.52,3.78,5.85,3.78,9.99v120.15c0,3.96-1.26,7.25-3.78,9.85
			C517.17,1839.73,513.84,1841.03,509.7,1841.03z M599.88,1841.03c-3.96,0-7.25-1.3-9.86-3.92c-2.61-2.61-3.91-5.89-3.91-9.85
			v-77.22c0-11.34-2.79-19.75-8.37-25.24c-5.58-5.49-12.87-8.23-21.87-8.23c-9.36,0-17.1,3.24-23.22,9.72
			c-6.12,6.48-9.18,14.76-9.18,24.84h-17.01c0-11.7,2.34-22,7.02-30.91c4.68-8.91,11.16-15.88,19.44-20.92
			c8.28-5.04,17.73-7.56,28.35-7.56c10.26,0,19.35,2.25,27.27,6.75c7.92,4.5,14.08,11.12,18.5,19.84c4.41,8.73,6.61,19.3,6.61,31.72
			v77.22c0,3.96-1.26,7.25-3.78,9.85C607.34,1839.73,604.02,1841.03,599.88,1841.03z M689.78,1841.03c-3.96,0-7.25-1.3-9.86-3.92
			c-2.61-2.61-3.92-5.89-3.92-9.85v-77.22c0-11.34-2.79-19.75-8.37-25.24c-5.58-5.49-12.87-8.23-21.87-8.23
			c-9.36,0-17.06,3.24-23.08,9.72c-6.03,6.48-9.05,14.76-9.05,24.84h-22.41c0-11.7,2.52-22,7.56-30.91
			c5.04-8.91,12.1-15.88,21.2-20.92c9.09-5.04,19.48-7.56,31.18-7.56c10.26,0,19.35,2.25,27.27,6.75
			c7.92,4.5,14.08,11.12,18.5,19.84c4.41,8.73,6.61,19.3,6.61,31.72v77.22c0,3.96-1.26,7.25-3.78,9.85
			C697.25,1839.73,693.92,1841.03,689.78,1841.03z"/>
		<path d="M757.55,1841.03c-3.96,0-7.25-1.3-9.86-3.92c-2.61-2.61-3.91-5.89-3.91-9.85v-120.15c0-4.14,1.3-7.47,3.91-9.99
			c2.61-2.52,5.89-3.78,9.86-3.78c4.14,0,7.47,1.26,9.99,3.78c2.52,2.52,3.78,5.85,3.78,9.99v120.15c0,3.96-1.26,7.25-3.78,9.85
			C765.02,1839.73,761.69,1841.03,757.55,1841.03z M847.73,1841.03c-3.96,0-7.25-1.3-9.86-3.92c-2.61-2.61-3.91-5.89-3.91-9.85
			v-77.22c0-11.34-2.79-19.75-8.37-25.24c-5.58-5.49-12.87-8.23-21.87-8.23c-9.36,0-17.1,3.24-23.22,9.72
			c-6.12,6.48-9.18,14.76-9.18,24.84h-17.01c0-11.7,2.34-22,7.02-30.91c4.68-8.91,11.16-15.88,19.44-20.92
			c8.28-5.04,17.73-7.56,28.35-7.56c10.26,0,19.35,2.25,27.27,6.75c7.92,4.5,14.08,11.12,18.5,19.84c4.41,8.73,6.61,19.3,6.61,31.72
			v77.22c0,3.96-1.26,7.25-3.78,9.85C855.19,1839.73,851.87,1841.03,847.73,1841.03z M937.64,1841.03c-3.96,0-7.25-1.3-9.86-3.92
			c-2.61-2.61-3.92-5.89-3.92-9.85v-77.22c0-11.34-2.79-19.75-8.37-25.24c-5.58-5.49-12.87-8.23-21.87-8.23
			c-9.36,0-17.06,3.24-23.08,9.72c-6.03,6.48-9.04,14.76-9.04,24.84h-22.41c0-11.7,2.52-22,7.56-30.91
			c5.04-8.91,12.1-15.88,21.19-20.92c9.09-5.04,19.48-7.56,31.18-7.56c10.26,0,19.35,2.25,27.27,6.75
			c7.92,4.5,14.08,11.12,18.5,19.84c4.41,8.73,6.61,19.3,6.61,31.72v77.22c0,3.96-1.26,7.25-3.78,9.85
			C945.1,1839.73,941.77,1841.03,937.64,1841.03z"/>
		<path d="M1058.59,1841.84c-14.58,0-27.45-3.19-38.61-9.58c-11.16-6.39-19.94-15.21-26.32-26.46c-6.39-11.25-9.58-24.16-9.58-38.74
			c0-14.76,3.19-27.76,9.58-39.01c6.39-11.25,15.16-20.07,26.32-26.46c11.16-6.39,24.03-9.58,38.61-9.58
			c14.4,0,27.18,3.2,38.34,9.58c11.16,6.39,19.93,15.21,26.32,26.46c6.39,11.25,9.59,24.26,9.59,39.01c0,14.58-3.15,27.5-9.45,38.74
			c-6.3,11.25-15.03,20.07-26.19,26.46C1086.04,1838.65,1073.17,1841.84,1058.59,1841.84z M1058.59,1817.54
			c9.36,0,17.64-2.16,24.84-6.48c7.2-4.32,12.83-10.26,16.88-17.82c4.05-7.56,6.08-16.29,6.08-26.19c0-9.9-2.03-18.67-6.08-26.32
			c-4.05-7.65-9.68-13.63-16.88-17.96c-7.2-4.32-15.48-6.48-24.84-6.48c-9.36,0-17.64,2.16-24.84,6.48
			c-7.2,4.32-12.87,10.31-17.01,17.96c-4.14,7.65-6.21,16.43-6.21,26.32c0,9.9,2.07,18.63,6.21,26.19
			c4.14,7.56,9.81,13.5,17.01,17.82C1040.95,1815.38,1049.23,1817.54,1058.59,1817.54z"/>
		<path d="M1235.43,1841.84c-14.04,0-26.69-3.28-37.93-9.85c-11.25-6.57-20.16-15.52-26.73-26.86c-6.57-11.34-9.85-24.12-9.85-38.34
			c0-14.22,3.01-26.95,9.04-38.2c6.03-11.25,14.26-20.16,24.7-26.73c10.44-6.57,22.23-9.85,35.37-9.85
			c10.62,0,20.43,2.21,29.43,6.62c9,4.41,16.56,10.39,22.68,17.95v-72.9c0-4.14,1.3-7.47,3.91-9.99c2.61-2.52,5.89-3.78,9.86-3.78
			c4.14,0,7.47,1.26,9.99,3.78c2.52,2.52,3.78,5.85,3.78,9.99v123.12c0,14.22-3.29,27-9.85,38.34c-6.57,11.34-15.44,20.3-26.6,26.86
			C1262.07,1838.56,1249.47,1841.84,1235.43,1841.84z M1235.43,1817.54c9.18,0,17.37-2.2,24.57-6.62
			c7.2-4.41,12.87-10.48,17.01-18.22c4.14-7.74,6.21-16.38,6.21-25.92c0-9.72-2.07-18.36-6.21-25.92
			c-4.14-7.56-9.81-13.54-17.01-17.95c-7.2-4.41-15.39-6.62-24.57-6.62c-9,0-17.14,2.21-24.43,6.62
			c-7.29,4.41-13.05,10.39-17.28,17.95c-4.23,7.56-6.34,16.2-6.34,25.92c0,9.54,2.11,18.18,6.34,25.92
			c4.23,7.74,9.99,13.82,17.28,18.22C1218.29,1815.34,1226.43,1817.54,1235.43,1817.54z"/>
		<path d="M1369.34,1669.05c-4.86,0-9.04-1.75-12.55-5.26s-5.26-7.69-5.26-12.55c0-4.86,1.75-9.04,5.26-12.55s7.7-5.26,12.55-5.26
			c4.86,0,9.05,1.75,12.56,5.26s5.26,7.7,5.26,12.55c0,4.86-1.75,9.04-5.26,12.55S1374.21,1669.05,1369.34,1669.05z
			 M1369.34,1840.76c-3.96,0-7.25-1.3-9.85-3.91c-2.61-2.61-3.92-5.89-3.92-9.86v-120.15c0-4.14,1.3-7.47,3.92-9.99
			c2.61-2.52,5.89-3.78,9.85-3.78c4.14,0,7.47,1.26,9.99,3.78c2.52,2.52,3.78,5.85,3.78,9.99v120.15c0,3.96-1.26,7.25-3.78,9.86
			C1376.81,1839.46,1373.48,1840.76,1369.34,1840.76z"/>
		<path d="M1422.8,1721.7c-3.78,0-6.84-1.08-9.18-3.24c-2.34-2.16-3.51-4.86-3.51-8.1c0-3.6,1.17-6.48,3.51-8.64
			c2.34-2.16,5.4-3.24,9.18-3.24h62.37c3.78,0,6.84,1.08,9.18,3.24c2.34,2.16,3.51,5.04,3.51,8.64c0,3.24-1.17,5.94-3.51,8.1
			c-2.34,2.16-5.4,3.24-9.18,3.24H1422.8z M1482.74,1840.76c-9,0-17.1-2.29-24.3-6.88c-7.2-4.59-12.87-10.84-17.01-18.76
			c-4.14-7.92-6.21-16.83-6.21-26.73V1659.6c0-3.96,1.26-7.2,3.78-9.72c2.52-2.52,5.76-3.78,9.72-3.78c3.96,0,7.2,1.26,9.72,3.78
			c2.52,2.52,3.78,5.76,3.78,9.72v128.79c0,7.2,1.98,13.23,5.94,18.09c3.96,4.86,8.82,7.29,14.58,7.29h9.18
			c3.24,0,5.98,1.26,8.24,3.78c2.25,2.52,3.38,5.76,3.38,9.72c0,3.96-1.49,7.2-4.46,9.72c-2.97,2.52-6.8,3.78-11.48,3.78H1482.74z"
			/>
		<path d="M1601.26,1841.84c-14.94,0-28.21-3.19-39.82-9.58c-11.61-6.39-20.7-15.21-27.27-26.46c-6.57-11.25-9.85-24.16-9.85-38.74
			c0-14.76,3.1-27.76,9.31-39.01c6.21-11.25,14.8-20.07,25.78-26.46c10.98-6.39,23.58-9.58,37.8-9.58c14.04,0,26.1,3.1,36.18,9.31
			c10.08,6.21,17.77,14.76,23.09,25.65c5.31,10.89,7.96,23.45,7.96,37.66c0,3.42-1.17,6.26-3.51,8.5c-2.34,2.25-5.31,3.38-8.91,3.38
			h-108.81v-21.6h108l-11.07,7.56c-0.18-9-1.98-17.05-5.4-24.16c-3.42-7.11-8.28-12.73-14.58-16.88c-6.3-4.14-13.95-6.21-22.95-6.21
			c-10.26,0-19.03,2.25-26.32,6.75c-7.29,4.5-12.83,10.67-16.61,18.49c-3.78,7.83-5.67,16.7-5.67,26.59c0,9.9,2.25,18.72,6.75,26.46
			c4.5,7.74,10.71,13.86,18.63,18.36c7.92,4.5,17.01,6.75,27.27,6.75c5.58,0,11.29-1.03,17.14-3.11c5.85-2.07,10.57-4.46,14.17-7.15
			c2.7-1.98,5.62-3.01,8.78-3.11c3.15-0.09,5.89,0.86,8.23,2.83c3.06,2.7,4.68,5.67,4.86,8.91c0.18,3.24-1.26,6.03-4.32,8.37
			c-6.12,4.86-13.73,8.82-22.81,11.88C1618.22,1840.32,1609.54,1841.84,1601.26,1841.84z"/>
		<path d="M1755.7,1841.84c-13.14,0-24.93-3.28-35.37-9.85c-10.44-6.57-18.68-15.48-24.71-26.73c-6.03-11.25-9.04-23.98-9.04-38.2
			c0-14.22,3.28-27,9.86-38.34c6.57-11.34,15.48-20.29,26.73-26.86c11.25-6.57,23.89-9.85,37.93-9.85c14.04,0,26.64,3.29,37.8,9.85
			c11.16,6.57,20.02,15.52,26.6,26.86c6.57,11.34,9.85,24.12,9.85,38.34h-10.53c0,14.22-3.02,26.96-9.05,38.2
			c-6.03,11.25-14.27,20.16-24.7,26.73C1780.62,1838.56,1768.83,1841.84,1755.7,1841.84z M1761.09,1817.54
			c9.18,0,17.37-2.2,24.57-6.62c7.2-4.41,12.87-10.44,17.01-18.09c4.14-7.65,6.21-16.24,6.21-25.79c0-9.72-2.07-18.4-6.21-26.05
			c-4.14-7.65-9.81-13.68-17.01-18.09c-7.2-4.41-15.39-6.62-24.57-6.62c-9,0-17.14,2.21-24.43,6.62
			c-7.29,4.41-13.05,10.44-17.28,18.09c-4.23,7.65-6.35,16.33-6.35,26.05c0,9.54,2.11,18.14,6.35,25.79
			c4.23,7.65,9.99,13.68,17.28,18.09C1743.95,1815.34,1752.09,1817.54,1761.09,1817.54z M1821.57,1841.03
			c-3.96,0-7.25-1.3-9.86-3.92c-2.61-2.61-3.92-5.89-3.92-9.85v-41.31l5.13-28.62l22.41,9.72v60.21c0,3.96-1.31,7.25-3.91,9.85
			C1828.82,1839.73,1825.53,1841.03,1821.57,1841.03z"/>
	</g>
</g>
</svg>
