<?xml version="1.0" encoding="utf-8"?>
<!-- Generator: Adobe Illustrator 23.0.1, SVG Export Plug-In . SVG Version: 6.00 Build 0)  -->
<svg version="1.1" id="Layer_1" xmlns="http://www.w3.org/2000/svg" xmlns:xlink="http://www.w3.org/1999/xlink" x="0px" y="0px"
	 viewBox="0 0 2624 578" style="enable-background:new 0 0 2624 578;" xml:space="preserve">
<style type="text/css">
	.st0{fill:#F7A041;}
	.st1{fill:#FFCC99;}
	.st2{fill:#CC9966;}
	.st3{fill:#2B9984;}
	.st4{fill:#30AA93;}
	.st5{fill:#258472;}
	.st6{fill:#2DA08A;}
	.st7{fill:#2FB299;}
	.st8{fill:#CCCC99;}
	.st9{fill:#996633;}
	.st10{fill:#EDEDED;}
	.st11{fill:#FFFFFF;}
</style>
<g>
	<g>
		<path d="M664.56,385.09c-17.07,0-32.27-3.89-45.6-11.68c-13.33-7.78-23.79-18.34-31.36-31.68c-7.58-13.33-11.36-28.42-11.36-45.28
			c0-17.28,3.73-32.64,11.2-46.08c7.46-13.44,17.7-23.94,30.72-31.52c13.01-7.57,27.94-11.36,44.8-11.36c12.58,0,24.1,2.4,34.56,7.2
			c10.45,4.8,19.84,12,28.16,21.6c2.99,3.42,4.05,6.93,3.2,10.56c-0.86,3.63-3.2,6.83-7.04,9.6c-2.99,2.13-6.29,2.83-9.92,2.08
			c-3.63-0.75-6.93-2.61-9.92-5.6c-10.45-11.09-23.47-16.64-39.04-16.64c-10.88,0-20.48,2.51-28.8,7.52
			c-8.32,5.01-14.83,12-19.52,20.96c-4.7,8.96-7.04,19.52-7.04,31.68c0,11.52,2.4,21.76,7.2,30.72c4.8,8.96,11.46,16.06,20,21.28
			c8.53,5.23,18.45,7.84,29.76,7.84c7.46,0,14.02-0.91,19.68-2.72c5.65-1.81,10.83-4.64,15.52-8.48c3.41-2.77,6.93-4.32,10.56-4.64
			c3.62-0.32,6.83,0.7,9.6,3.04c3.62,2.99,5.65,6.35,6.08,10.08c0.43,3.74-0.85,7.1-3.84,10.08
			C706.8,377.95,687.6,385.09,664.56,385.09z"/>
		<path d="M856.88,385.09c-17.28,0-32.54-3.79-45.76-11.36c-13.23-7.57-23.63-18.03-31.2-31.36c-7.57-13.33-11.36-28.64-11.36-45.92
			c0-17.49,3.79-32.9,11.36-46.24c7.57-13.33,17.97-23.78,31.2-31.36c13.22-7.57,28.48-11.36,45.76-11.36
			c17.06,0,32.21,3.79,45.44,11.36c13.23,7.57,23.62,18.03,31.2,31.36c7.57,13.33,11.36,28.75,11.36,46.24
			c0,17.28-3.74,32.59-11.2,45.92c-7.47,13.33-17.81,23.79-31.04,31.36C889.41,381.31,874.16,385.09,856.88,385.09z M856.88,356.29
			c11.09,0,20.9-2.56,29.44-7.68c8.53-5.12,15.2-12.16,20-21.12c4.8-8.96,7.2-19.3,7.2-31.04c0-11.73-2.4-22.13-7.2-31.2
			c-4.8-9.06-11.47-16.16-20-21.28c-8.54-5.12-18.35-7.68-29.44-7.68c-11.09,0-20.91,2.56-29.44,7.68
			c-8.54,5.12-15.26,12.21-20.16,21.28c-4.91,9.07-7.36,19.47-7.36,31.2c0,11.73,2.45,22.08,7.36,31.04
			c4.9,8.96,11.62,16,20.16,21.12C835.97,353.73,845.78,356.29,856.88,356.29z"/>
		<path d="M1009.83,384.13c-4.69,0-8.59-1.54-11.68-4.64c-3.1-3.09-4.64-6.98-4.64-11.68v-142.4c0-4.91,1.54-8.85,4.64-11.84
			c3.09-2.99,6.98-4.48,11.68-4.48c4.91,0,8.85,1.5,11.84,4.48c2.99,2.99,4.48,6.93,4.48,11.84v142.4c0,4.7-1.49,8.59-4.48,11.68
			C1018.68,382.59,1014.73,384.13,1009.83,384.13z M1116.71,384.13c-4.7,0-8.59-1.54-11.68-4.64c-3.1-3.09-4.64-6.98-4.64-11.68
			v-91.52c0-13.44-3.31-23.41-9.92-29.92c-6.62-6.5-15.25-9.76-25.92-9.76c-11.09,0-20.27,3.84-27.52,11.52
			c-7.26,7.68-10.88,17.5-10.88,29.44h-20.16c0-13.86,2.77-26.08,8.32-36.64c5.54-10.56,13.22-18.82,23.04-24.8
			c9.81-5.97,21.01-8.96,33.6-8.96c12.16,0,22.93,2.67,32.32,8c9.39,5.33,16.69,13.17,21.92,23.52c5.22,10.35,7.84,22.88,7.84,37.6
			v91.52c0,4.7-1.49,8.59-4.48,11.68C1125.56,382.59,1121.61,384.13,1116.71,384.13z M1223.26,384.13c-4.7,0-8.59-1.54-11.68-4.64
			c-3.1-3.09-4.64-6.98-4.64-11.68v-91.52c0-13.44-3.31-23.41-9.92-29.92c-6.62-6.5-15.26-9.76-25.92-9.76
			c-11.1,0-20.21,3.84-27.36,11.52c-7.15,7.68-10.72,17.5-10.72,29.44h-26.56c0-13.86,2.98-26.08,8.96-36.64
			c5.97-10.56,14.35-18.82,25.12-24.8c10.77-5.97,23.09-8.96,36.96-8.96c12.16,0,22.93,2.67,32.32,8
			c9.38,5.33,16.69,13.17,21.92,23.52c5.22,10.35,7.84,22.88,7.84,37.6v91.52c0,4.7-1.5,8.59-4.48,11.68
			C1232.11,382.59,1228.17,384.13,1223.26,384.13z"/>
		<path d="M1309.98,384.13c-4.7,0-8.59-1.54-11.68-4.64c-3.1-3.09-4.64-6.98-4.64-11.68v-142.4c0-4.91,1.54-8.85,4.64-11.84
			c3.09-2.99,6.98-4.48,11.68-4.48c4.9,0,8.85,1.5,11.84,4.48c2.98,2.99,4.48,6.93,4.48,11.84v142.4c0,4.7-1.5,8.59-4.48,11.68
			C1318.83,382.59,1314.88,384.13,1309.98,384.13z M1416.86,384.13c-4.7,0-8.59-1.54-11.68-4.64c-3.1-3.09-4.64-6.98-4.64-11.68
			v-91.52c0-13.44-3.31-23.41-9.92-29.92c-6.62-6.5-15.25-9.76-25.92-9.76c-11.1,0-20.27,3.84-27.52,11.52
			c-7.26,7.68-10.88,17.5-10.88,29.44h-20.16c0-13.86,2.77-26.08,8.32-36.64c5.54-10.56,13.22-18.82,23.04-24.8
			c9.81-5.97,21.01-8.96,33.6-8.96c12.16,0,22.93,2.67,32.32,8c9.38,5.33,16.69,13.17,21.92,23.52c5.22,10.35,7.84,22.88,7.84,37.6
			v91.52c0,4.7-1.5,8.59-4.48,11.68C1425.71,382.59,1421.76,384.13,1416.86,384.13z M1523.41,384.13c-4.69,0-8.59-1.54-11.68-4.64
			c-3.09-3.09-4.64-6.98-4.64-11.68v-91.52c0-13.44-3.31-23.41-9.92-29.92c-6.62-6.5-15.25-9.76-25.92-9.76
			c-11.1,0-20.21,3.84-27.36,11.52c-7.15,7.68-10.72,17.5-10.72,29.44h-26.56c0-13.86,2.98-26.08,8.96-36.64
			c5.97-10.56,14.35-18.82,25.12-24.8c10.77-5.97,23.09-8.96,36.96-8.96c12.16,0,22.93,2.67,32.32,8
			c9.38,5.33,16.69,13.17,21.92,23.52c5.22,10.35,7.84,22.88,7.84,37.6v91.52c0,4.7-1.5,8.59-4.48,11.68
			C1532.26,382.59,1528.32,384.13,1523.41,384.13z"/>
		<path d="M1673.17,385.09c-17.28,0-32.54-3.79-45.76-11.36c-13.23-7.57-23.63-18.03-31.2-31.36
			c-7.57-13.33-11.36-28.64-11.36-45.92c0-17.49,3.79-32.9,11.36-46.24c7.57-13.33,17.97-23.78,31.2-31.36
			c13.22-7.57,28.48-11.36,45.76-11.36c17.06,0,32.21,3.79,45.44,11.36c13.22,7.57,23.62,18.03,31.2,31.36
			c7.57,13.33,11.36,28.75,11.36,46.24c0,17.28-3.74,32.59-11.2,45.92c-7.47,13.33-17.81,23.79-31.04,31.36
			C1705.7,381.31,1690.45,385.09,1673.17,385.09z M1673.17,356.29c11.09,0,20.9-2.56,29.44-7.68c8.53-5.12,15.2-12.16,20-21.12
			c4.8-8.96,7.2-19.3,7.2-31.04c0-11.73-2.4-22.13-7.2-31.2c-4.8-9.06-11.47-16.16-20-21.28c-8.53-5.12-18.35-7.68-29.44-7.68
			c-11.1,0-20.91,2.56-29.44,7.68c-8.54,5.12-15.26,12.21-20.16,21.28c-4.91,9.07-7.36,19.47-7.36,31.2
			c0,11.73,2.45,22.08,7.36,31.04c4.9,8.96,11.62,16,20.16,21.12C1652.26,353.73,1662.07,356.29,1673.17,356.29z"/>
		<path d="M1889.16,385.09c-16.64,0-31.63-3.89-44.96-11.68c-13.33-7.78-23.89-18.4-31.68-31.84
			c-7.79-13.44-11.68-28.58-11.68-45.44c0-16.85,3.57-31.94,10.72-45.28c7.15-13.33,16.91-23.89,29.28-31.68
			c12.37-7.78,26.34-11.68,41.92-11.68c12.58,0,24.21,2.62,34.88,7.84c10.66,5.23,19.62,12.32,26.88,21.28v-86.4
			c0-4.91,1.55-8.85,4.64-11.84c3.09-2.98,6.98-4.48,11.68-4.48c4.91,0,8.85,1.5,11.84,4.48c2.98,2.99,4.48,6.93,4.48,11.84v145.92
			c0,16.85-3.9,32-11.68,45.44c-7.79,13.44-18.29,24.05-31.52,31.84C1920.73,381.2,1905.79,385.09,1889.16,385.09z M1889.16,356.29
			c10.88,0,20.58-2.61,29.12-7.84c8.53-5.22,15.25-12.42,20.16-21.6c4.9-9.17,7.36-19.41,7.36-30.72c0-11.52-2.46-21.76-7.36-30.72
			c-4.91-8.96-11.63-16.05-20.16-21.28c-8.54-5.22-18.24-7.84-29.12-7.84c-10.67,0-20.32,2.62-28.96,7.84
			c-8.64,5.23-15.47,12.32-20.48,21.28c-5.01,8.96-7.52,19.2-7.52,30.72c0,11.31,2.51,21.55,7.52,30.72
			c5.01,9.17,11.84,16.38,20.48,21.6C1868.84,353.68,1878.49,356.29,1889.16,356.29z"/>
		<path d="M2054.27,180.3c-5.76,0-10.72-2.08-14.88-6.24c-4.16-4.16-6.24-9.12-6.24-14.88s2.08-10.72,6.24-14.88
			s9.12-6.24,14.88-6.24s10.72,2.08,14.88,6.24s6.24,9.12,6.24,14.88s-2.08,10.72-6.24,14.88
			C2064.99,178.22,2060.03,180.3,2054.27,180.3z M2054.27,383.81c-4.7,0-8.59-1.54-11.68-4.64c-3.09-3.09-4.64-6.98-4.64-11.68
			V225.1c0-4.9,1.54-8.85,4.64-11.84c3.09-2.98,6.98-4.48,11.68-4.48c4.9,0,8.85,1.5,11.84,4.48c2.98,2.99,4.48,6.94,4.48,11.84
			v142.4c0,4.7-1.5,8.59-4.48,11.68C2063.12,382.27,2059.17,383.81,2054.27,383.81z"/>
		<path d="M2124.02,242.7c-4.48,0-8.11-1.28-10.88-3.84c-2.78-2.56-4.16-5.76-4.16-9.6c0-4.27,1.38-7.68,4.16-10.24
			c2.77-2.56,6.4-3.84,10.88-3.84h73.92c4.48,0,8.1,1.28,10.88,3.84c2.77,2.56,4.16,5.97,4.16,10.24c0,3.84-1.39,7.04-4.16,9.6
			c-2.78,2.56-6.4,3.84-10.88,3.84H2124.02z M2195.06,383.81c-10.67,0-20.27-2.72-28.8-8.16c-8.54-5.44-15.26-12.85-20.16-22.24
			c-4.91-9.39-7.36-19.95-7.36-31.68V169.1c0-4.69,1.49-8.53,4.48-11.52c2.99-2.98,6.83-4.48,11.52-4.48c4.69,0,8.53,1.5,11.52,4.48
			c2.98,2.99,4.48,6.83,4.48,11.52v152.64c0,8.54,2.35,15.68,7.04,21.44c4.69,5.76,10.45,8.64,17.28,8.64h10.88
			c3.84,0,7.09,1.5,9.76,4.48c2.67,2.99,4,6.83,4,11.52c0,4.7-1.76,8.53-5.28,11.52c-3.52,2.99-8.05,4.48-13.6,4.48H2195.06z"/>
		<path d="M2341.93,385.09c-17.71,0-33.44-3.79-47.2-11.36c-13.76-7.57-24.53-18.03-32.32-31.36
			c-7.79-13.33-11.68-28.64-11.68-45.92c0-17.49,3.68-32.9,11.04-46.24c7.36-13.33,17.54-23.78,30.56-31.36
			c13.01-7.57,27.94-11.36,44.8-11.36c16.64,0,30.93,3.68,42.88,11.04c11.95,7.36,21.06,17.49,27.36,30.4
			c6.29,12.91,9.44,27.79,9.44,44.64c0,4.05-1.39,7.42-4.16,10.08c-2.78,2.67-6.29,4-10.56,4h-128.96v-25.6h128l-13.12,8.96
			c-0.21-10.67-2.35-20.21-6.4-28.64c-4.05-8.42-9.81-15.09-17.28-20c-7.47-4.91-16.54-7.36-27.2-7.36c-12.16,0-22.56,2.67-31.2,8
			c-8.64,5.33-15.2,12.64-19.68,21.92c-4.48,9.28-6.72,19.79-6.72,31.52c0,11.73,2.67,22.19,8,31.36
			c5.33,9.17,12.69,16.43,22.08,21.76c9.38,5.33,20.16,8,32.32,8c6.61,0,13.38-1.22,20.32-3.68c6.93-2.45,12.53-5.28,16.8-8.48
			c3.2-2.34,6.67-3.57,10.4-3.68c3.73-0.11,6.98,1.01,9.76,3.36c3.62,3.2,5.54,6.72,5.76,10.56c0.21,3.84-1.49,7.15-5.12,9.92
			c-7.26,5.76-16.27,10.45-27.04,14.08C2362.04,383.28,2351.74,385.09,2341.93,385.09z"/>
		<path d="M2531.36,385.09c-15.57,0-29.55-3.89-41.92-11.68c-12.37-7.78-22.13-18.34-29.28-31.68
			c-7.15-13.33-10.72-28.42-10.72-45.28c0-16.85,3.89-32,11.68-45.44c7.79-13.44,18.35-24.05,31.68-31.84
			c13.33-7.78,28.32-11.68,44.96-11.68c16.64,0,31.57,3.9,44.8,11.68c13.22,7.79,23.73,18.4,31.52,31.84
			c7.78,13.44,11.68,28.59,11.68,45.44h-12.48c0,16.85-3.57,31.95-10.72,45.28c-7.15,13.33-16.91,23.89-29.28,31.68
			C2560.91,381.2,2546.93,385.09,2531.36,385.09z M2537.76,356.29c10.88,0,20.58-2.61,29.12-7.84c8.53-5.22,15.25-12.37,20.16-21.44
			c4.9-9.07,7.36-19.25,7.36-30.56c0-11.52-2.46-21.81-7.36-30.88c-4.91-9.06-11.63-16.21-20.16-21.44
			c-8.54-5.22-18.24-7.84-29.12-7.84c-10.67,0-20.32,2.62-28.96,7.84c-8.64,5.23-15.47,12.38-20.48,21.44
			c-5.01,9.07-7.52,19.36-7.52,30.88c0,11.31,2.51,21.49,7.52,30.56c5.01,9.07,11.84,16.21,20.48,21.44
			C2517.44,353.68,2527.09,356.29,2537.76,356.29z M2609.44,384.13c-4.7,0-8.59-1.54-11.68-4.64c-3.09-3.09-4.64-6.98-4.64-11.68
			v-48.96l6.08-33.92l26.56,11.52v71.36c0,4.7-1.55,8.59-4.64,11.68C2618.03,382.59,2614.13,384.13,2609.44,384.13z"/>
	</g>
</g>
<path class="st0" d="M142.81,250.41c0.53-6.47,3.16-13.17,6.72-19.57c6.08-10.94,13.76-20.58,24.11-27.72
	c3.47-2.39,7.56-4.1,11.61-5.36c3.48-1.08,5.61,0.56,5.84,4.22c0.2,3.16,0.01,6.54-0.93,9.54c-5.68,18.03-16.51,32.31-32.18,42.87
	c-2.08,1.4-4.48,2.49-6.88,3.26C145.41,259.51,142.72,257.36,142.81,250.41z"/>
<g>
	<path class="st0" d="M120.23,80.46c-0.43,8.69-3.33,16.67-7.25,24.29c-8.23,16-19.07,29.94-33.92,40.3
		c-4.41,3.08-9.55,5.42-14.69,7.07c-6.47,2.08-10.43-1.21-10.77-8.04c-0.38-7.85,2.02-15.1,5.23-22.08
		c8.73-18.99,21.14-35.02,38.8-46.53c3.62-2.36,7.84-4.17,12.03-5.19c6.7-1.63,10.22,1.5,10.56,8.42
		C120.25,79.28,120.23,79.87,120.23,80.46z"/>
	<path class="st0" d="M59.43,152.57c-4.8,0.12-8.81-1.67-12.64-3.84c-13.02-7.34-22.88-18.04-31.33-30.12
		C8.38,108.51,2.63,97.72,0.44,85.41c-0.47-2.67-0.53-5.48-0.34-8.19c0.38-5.34,3.61-7.88,8.95-7.21
		c7.49,0.94,13.59,4.94,19.29,9.45c14.08,11.14,24.79,25,32.36,41.26c0.57,1.23,0.56,3.04,0.14,4.37
		C57.99,134.08,56.11,143.08,59.43,152.57z"/>
	<path class="st1" d="M60.56,101.57c-5.42-7.42-11.2-15.29-16.92-23.2c-0.46-0.64-0.74-1.63-0.65-2.4
		c1.14-10.07,3.13-19.94,8.17-28.89c1.18-2.11,2.69-4.12,4.41-5.82c3.32-3.28,6.68-3.21,10.1,0.01c3.96,3.73,6.38,8.52,7.82,13.6
		c1.91,6.76,3.2,13.69,4.65,20.57c0.18,0.85-0.02,2.03-0.51,2.72C71.88,86.15,66.04,94.08,60.56,101.57z"/>
</g>
<g>
	<path class="st0" d="M218.57,92.66c0.36-7.11,3.37-15.15,7.34-22.85c8.09-15.73,18.77-29.42,33.28-39.71
		c4.47-3.17,9.66-5.64,14.88-7.34c6.88-2.24,11.01,1.28,11.12,8.53c0.14,9.29-3.13,17.69-7.23,25.76
		c-7.98,15.67-18.62,29.26-32.92,39.65c-4.07,2.96-8.66,5.45-13.37,7.21C222.99,107.14,218.5,103.62,218.57,92.66z"/>
	<path class="st0" d="M211.33,104.83c-5.01,0.1-9-1.77-12.84-3.93c-10.62-5.95-19.09-14.35-26.53-23.83
		c-8.54-10.88-15.65-22.58-18.85-36.21c-0.9-3.84-1.12-7.96-0.89-11.91c0.29-4.78,3.16-6.91,7.93-6.72
		c5.18,0.21,9.69,2.45,13.89,5.18c17.6,11.45,30.03,27.34,38.89,46.16c0.5,1.05,0.28,2.67-0.1,3.87c-2.5,7.83-4.27,15.7-2.41,23.95
		C210.64,102.45,210.96,103.47,211.33,104.83z"/>
	<path class="st1" d="M218.53,62.9c-5.33-7.3-11.05-15.11-16.7-22.96c-0.52-0.72-0.92-1.78-0.83-2.63
		c1.05-10.2,3.17-20.14,8.28-29.17c1.23-2.18,2.88-4.24,4.71-5.95c2.91-2.73,6.47-2.89,9.15,0.12c2.81,3.16,5.69,6.76,6.98,10.68
		c2.59,7.85,4.15,16.05,6.04,24.13c0.17,0.73-0.13,1.78-0.58,2.42C229.8,47.53,223.96,55.48,218.53,62.9z"/>
</g>
<path class="st0" d="M134.04,258.3c-2.21-0.92-4.56-1.62-6.62-2.81c-13.23-7.65-22.58-18.98-29.4-32.37
	c-2.58-5.07-4.07-10.75-5.62-16.27c-0.81-2.89-0.97-6.33,1.77-8.44c2.66-2.05,5.69-0.69,8.37,0.48c9.9,4.33,17.3,11.75,23.63,20.19
	c3.74,4.98,6.71,10.54,9.9,15.92c0.48,0.8,0.61,2.11,0.33,3c-2.03,6.41-3.5,12.84-1.78,19.62
	C134.43,257.84,134.23,258.07,134.04,258.3z"/>
<path class="st1" d="M141.77,225.35c-3.75-5.09-7.77-10.5-11.7-15.96c-0.4-0.56-0.53-1.48-0.45-2.2c0.8-7.36,2.38-14.51,6.07-21.02
	c4.01-7.06,8.09-7.09,12.11-0.08c3.78,6.58,5.35,13.85,6.17,21.29c0.08,0.69-0.18,1.57-0.59,2.15
	C149.49,214.92,145.52,220.26,141.77,225.35z"/>
<path class="st2" d="M130.84,331.7c15.32,14.55,33.78,18.75,52.8,21.33c22.96,3.11,45.97,1.6,69.01,0.57
	c16.73-0.75,33.53-0.18,50.29-0.17c5.2,0.01,10.39,0.14,15.59,0.21c1.43,0.02,2.87,0,4.94,0c-3.03,3.44-5.76,6.2-8.11,9.26
	c-7.76,10.11-15.25,20.44-23.12,30.47c-3.68,4.68-7.94,8.91-12.04,13.25c-0.99,1.05-2.3,1.84-3.58,2.55
	c-3.44,1.91-6.07,1.35-8.52-1.75c-2.12-2.7-3.95-5.67-6.33-8.11c-2.12-2.17-4.62-4.19-7.32-5.54c-4.99-2.5-6.39-3.95-5.95-7.89
	c0.47-4.15,3.65-7.41,8.09-8.15c1.44-0.24,2.92-0.2,4.38-0.33c2.49-0.23,4.01-1.58,4.18-4.1c0.17-2.51-1.12-4.37-3.55-4.65
	c-6.94-0.82-13.11,1.05-17.71,6.51c-4.42,5.24-5.78,11.28-3.26,17.86c1.84,4.82,6.16,6.85,10.4,8.98c1.42,0.71,2.8,1.75,3.82,2.95
	c2.66,3.14,5,6.55,7.66,9.69c4.41,5.21,10.15,6.75,16.07,3.58c5.11-2.74,9.26-1.5,13.75,1.14c3.68,2.16,7.47,4.47,11.52,5.57
	c6.13,1.66,14.1-3.22,17.79-9.98c3.57-6.53,2.85-13.77-1.86-18.86c-1.87-2.01-4.39-2.41-6.3-0.99c-2.12,1.58-2.39,4.05-0.71,6.51
	c3.84,5.66,1.17,12.88-5.54,14.34c-1.53,0.33-3.51-0.25-4.96-1.02c-3.63-1.92-7.07-4.19-10.77-6.43c2.13-2.56,4.4-5.1,6.46-7.8
	c8.38-11,16.69-22.05,25.04-33.07c0.59-0.78,1.3-1.48,1.89-2.25c6.44-8.44,14.42-12.27,25.54-11.87c19.79,0.72,39.6-0.53,59.1-4.58
	c7.21-1.5,14.32-3.48,20.52-7.65c2.57-1.73,4.82-3.92,7.82-6.4c-0.75,4.31-1.35,8.09-2.08,11.85c-5.09,26.4-11.59,52.4-21.82,77.34
	c-10.05,24.49-22.91,47.24-41.48,66.42c-19.32,19.96-42.47,32.65-69.8,38.16c-11,2.22-21.66,6.09-32.49,9.15
	c-8.6,2.43-17.23,4.65-26.33,3.21c-4.85-0.76-9.1-2.75-13.2-5.41c-27.8-18.04-47.57-43.22-63.66-71.63
	c-15.63-27.6-27.62-56.67-34.7-87.66c-2.52-11.03-4.04-22.2-3.26-33.55C129.3,339.29,130.15,335.87,130.84,331.7z M252.75,440.77
	c-3.12,0.29-6.25,0.54-9.36,0.88c-9.74,1.07-19.46,2.26-29.21,3.21c-3.61,0.35-5.68,1.72-5.67,4.54c0.01,2.79,2.19,4.63,5.74,4.4
	c5.86-0.39,11.72-0.92,17.56-1.55c6.33-0.68,12.64-1.54,18.96-2.29c3.94-0.47,7.19,0.22,9.5,4.09c2.49,4.17,6.61,6.47,11.4,6.98
	c2.98,0.31,6.04-0.1,9.06-0.32c4.59-0.33,4.76-0.38,6.61,3.93c3.12,7.29,6.06,14.65,9.13,21.96c1.31,3.13,3.77,4.34,6.22,3.25
	c2.53-1.13,3.29-3.54,2.03-6.72c-1.65-4.19-3.17-8.44-5.09-12.51c-2.25-4.77-4.76-9.43-7.33-14.04c-2.41-4.31-6.41-5.45-11.05-4.99
	c-1.66,0.16-3.33,0.24-4.97,0.53c-4.17,0.72-7.32-0.79-9.54-4.27C263.44,442.7,258.77,440.48,252.75,440.77z M268.27,500.94
	c2.93-0.27,5.53-0.21,7.98-0.81c4.64-1.14,9.25-2.49,13.75-4.08c3.13-1.11,4.23-3.79,3.12-6.27c-1.05-2.34-3.58-3.09-6.54-1.92
	c-0.73,0.29-1.45,0.6-2.18,0.88c-21.18,8.15-45.3-1.42-54.6-21.67c-1.97-4.28-4.16-5.62-6.92-4.23c-2.7,1.37-3.2,4.09-1.08,8.19
	C231.63,490.01,247.45,499.64,268.27,500.94z M247.16,463.71c-0.52,0.64-1.88,1.6-2.12,2.78c-0.42,2.1,1.34,2.84,3.11,3.04
	c9.59,1.09,17.85,4.81,24.32,12.14c1.29,1.46,2.89,1.83,4.35,0.41c1.36-1.32,0.96-2.82-0.22-4.17
	C269.07,469.28,259.31,465.13,247.16,463.71z"/>
<path class="st3" d="M390.36,197.62c-18.85-7.05-35.36-17.32-47.72-33.43c-10.81-14.1-16.87-30.22-20.32-48.21
	C354.52,135.88,376.08,163.69,390.36,197.62z"/>
<path class="st4" d="M388.12,73.38c17.2-1.04,36.54,12.54,42.37,29.57C410.35,100.16,393.18,88.84,388.12,73.38z"/>
<path class="st5" d="M273.45,147.69c1.5,10.9,6.44,35.9,25.91,60.06c20.32,25.21,44.99,35.28,55.35,38.86
	c-4.91-13.96-14.18-35.04-31.8-56.53C305.2,168.49,286.22,155.23,273.45,147.69z"/>
<path class="st6" d="M419.9,151.73c-4.89-0.28-22.91-1.89-37.69-16.49c-10.31-10.19-13.97-21.7-15.31-27.09
	c6.05,0.75,17.07,2.96,28.26,10.6C411.78,130.1,417.99,146.04,419.9,151.73z"/>
<path class="st7" d="M429.74,60.81c-8.01,0.75-15.67,0.01-22.71-3.42c-6.17-3.01-10.9-7.5-14.97-13.06
	c3.47-0.46,7.8-0.64,12.55,0.18C419.55,47.05,427.43,57.45,429.74,60.81z"/>
<path class="st3" d="M409.82,205.88c29.4-16.72,60.48-20.55,93.88-12.21C473.9,212.76,442.08,210.92,409.82,205.88z"/>
<path class="st4" d="M495.72,86.8c-8.19,13.13-29.44,21.02-46.67,17.28C462.78,92.9,477.69,86.01,495.72,86.8z"/>
<path class="st5" d="M372.37,252.5c12.83-6.27,32.26-13.93,56.97-17.14c29.63-3.85,54.03,0.36,69.04,4.18
	c-10.58,6.72-31.38,17.96-60.06,21.2C408.07,264.16,384.21,256.97,372.37,252.5z"/>
<path class="st6" d="M439.92,155.27c5.42-5.06,16.86-14.36,34.15-18.84c13.01-3.37,24.15-2.67,30.96-1.69
	c-3.98,4.62-10.59,11.02-20.36,15.83C465.06,160.21,446.27,156.74,439.92,155.27z"/>
<path class="st7" d="M449.54,59.31c4.4,0.18,10.35-0.43,16.73-3.66c5.22-2.64,8.79-6.05,11.47-8.67c4.74-4.61,8.02-9.25,10.1-12.59
	c-3.22-0.26-16.15-0.84-27.76,9.95C454.49,49.55,451.27,55.46,449.54,59.31z"/>
<path class="st8" d="M88.19,194.81c-1.03-2.46-2.71-5.95-5.39-9.72c-2.46-3.47-4.73-5.7-7.8-8.67c-3.99-3.85-8.89-8.5-14.61-13.74
	c2.79-0.64,5.57-1.28,8.36-1.92c6.17,5.4,11.05,10.13,14.61,13.74c4.01,4.07,6.24,6.74,7.8,8.67c2.35,2.89,4.19,5.45,5.51,7.37
	c-0.83-0.06-2.71-0.09-4.77,0.93C89.77,192.52,88.63,194.11,88.19,194.81z"/>
<path class="st8" d="M164.48,197.79c1.51-2.05,3.98-5.37,7.07-9.42c8.65-11.35,11.79-14.68,16.48-21.53
	c5.08-7.42,8.51-13.36,9.42-14.97c4.86-8.52,11.24-21.43,16.49-38.86c3.14,0,6.28,0,9.42,0c-3.48,13.09-7.9,23.78-11.78,31.8
	c-7.02,14.51-14.96,25.21-20.43,32.61c-2.67,3.62-5,6.56-6.65,8.61c-2.95,0.93-6.64,2.39-10.6,4.71
	C169.88,193.09,166.76,195.64,164.48,197.79z"/>
<path class="st4" d="M96.23,148.33"/>
<path class="st2" d="M441.68,366.6c0.97-5.03,1.95-10.07,2.92-15.1c2.52-1.15,12.25-5.24,22.98-1.38
	c10.13,3.64,15.54,12.33,17.66,17.66c10.68,26.8-24.72,61.39-28.26,64.77c-17.28,16.51-36.89,23.74-50.64,27.09
	c2.75-4.32,5.5-8.64,8.24-12.95c12.29-5.19,41.51-19.61,50.64-48.28c2.04-6.41,7.37-23.17-1.18-30.62
	C456.69,361.36,443.65,365.89,441.68,366.6z"/>
<path class="st9" d="M445.21,374.84c1.54-0.69,4.62-2.02,8.24-1.18c3.19,0.74,5.26,2.81,5.89,3.53c6.48,7.42-2.28,29.14-14.13,42.4
	c-4.3,4.81-8.52,7.96-10.6,9.42c-6.3,4.42-12.27,6.87-16.49,8.24c1.58-2.55,3.16-5.3,4.71-8.24c0.84-1.6,1.62-3.17,2.36-4.71
	c2.3-1.13,5.71-3,9.42-5.89c5.69-4.43,13.48-12.33,11.78-15.31c-1.46-2.55-8.32,1.24-11.78-2.36c-3.19-3.31-0.91-10.21,0-12.95
	C435.22,385.97,437.79,378.17,445.21,374.84z"/>
<path class="st10" d="M426.39,543.84c0,0-14.34-4.46-56.2-9.52c-11.14-1.35-17.76-1.92-20.33-2.15c-4.61-0.4-9.41-0.75-14.38-1.07
	c-7.16,3.79-14.69,6.9-22.6,9.34c2.78,0.16,5.48,0.34,8.1,0.54c1.73,0.13,6.16,0.46,13.63,1.24c28.06,2.93,37.68,5.5,37.68,5.5
	c9,2.23,6.91,3.29,6.31,3.56c-0.13,0.06-0.27,0.11-0.42,0.16c-0.4,0.27-0.75,0.52-1.16,0.77c-3.41,2.08-7.78,4.12-14.64,6.08
	c-6.74,1.92-15.37,3.69-27.82,5.18c-12.96,1.54-28.48,2.5-46.8,2.89c-7.37,0.16-14.52,0.44-21.78,0.66
	c-5.77,0.18-11.55,0.34-17.65,0.21c-3.25-0.07-6.1-0.23-8.85-0.45c-18.63-1.48-31.88-3.5-42.66-5.78
	c-10.47-2.21-18.5-4.53-23.24-6.99c-1.44-0.75-2.38-1.5-2.3-2.26c0-0.01,0-0.02,0-0.03c0-0.01,0-0.02,0-0.04
	c-0.06-0.67,0.88-1.32,2.32-1.96c4.75-2.14,12.79-4.13,23.28-6.02c5.01-0.9,10.55-1.75,16.91-2.53c-4.01-3.24-7.85-6.64-11.51-10.19
	c-14.9,1.73-27.02,3.77-37.56,5.98c-15.64,3.28-27.64,6.75-34.73,10.47c-2.14,1.12-3.55,2.26-3.46,3.41c0,0.02,0,0.04,0,0.06
	c0,0.02,0,0.04,0,0.05c-0.11,1.32,1.29,2.63,3.44,3.92c7.07,4.27,19.04,8.29,34.67,12.12c16.08,3.94,35.84,7.45,63.63,10
	c4.09,0.38,8.35,0.66,13.2,0.78c9.09,0.22,17.72-0.06,26.33-0.37c10.83-0.39,21.49-0.89,32.49-1.17
	c27.33-0.68,50.48-2.36,69.81-5.05c18.58-2.58,31.45-5.67,41.51-9c10.24-3.39,16.75-6.95,21.85-10.55c0.61-0.43,1.13-0.87,1.73-1.34
	c0.22-0.09,0.43-0.19,0.62-0.29C436.69,549.55,439.81,547.71,426.39,543.84z"/>
<g>
	<g>
		<path class="st11" d="M378.51,370.26c-8.98-4.08-14.43-9.98-17.75-14c-5.17-6.26-9.6-14.11-13.26-23.55l-0.97-2.49l2.52-0.88
			c19.12-6.67,35.38-6.91,48.7-0.76c0,0,4.51,2.25,10.31,7.27c2.46,2.13,11.57,10.21,18.01,23.91c0.12,0.26,0.66,1.19,1.13,2.52
			c0.78,2.24,1.49,4.29,0.63,5.9c-0.71,1.33-2.23,1.83-5.28,2.82c-1.67,0.54-3,0.78-3.27,0.84
			C418.05,372.14,397.69,376.65,378.51,370.26z M353.22,333.58c6.84,16.12,15.98,26.78,27.57,32.04c0,0,0,0,0,0
			c0,0,12.79,6.29,34.71,1.81c0.12-0.03-0.02,0,2.17-0.51c3.25-0.76,3.79-0.88,4.16-1.39c0.2-0.27,0.74-1.19-0.15-3.37
			c0,0-0.97-2.08-2.01-4.02c-9.4-17.61-24.18-24.91-24.18-24.91C376.44,323.8,356.33,332.22,353.22,333.58z"/>
	</g>
</g>
<path class="st11" d="M394.05,333.26c-7.12-3.28-15.55-0.18-18.83,6.94c-3.28,7.12-0.18,15.55,6.94,18.83
	c7.12,3.28,15.55,0.18,18.83-6.94C404.28,344.98,401.17,336.55,394.05,333.26z"/>
<path class="st8" d="M438.81,43.92c-0.79,3.93,0.34,41.31-0.38,53.12c-0.04,0.72-1.06,15.35-4.33,29.32c0,0-0.97,3.94-2.13,7.72
	c-6.21,20.41-21.64,42.4-26.14,48.8c-11.01,15.69-21.89,31.47-32.97,47.11c-18.98,26.79-21.05,29.75-24.73,35.33
	c-6.47,9.82-15.57,23.69-25.91,42.4c-6.45,11.67-12.45,22.61-18.17,35.28h11.54c4-9.45,9.54-21.23,17.23-35.28
	c14.55-26.58,27.78-44.79,42.4-64.77c27.52-37.61,44.59-56.53,60.76-93.95c2.31-5.36,3.71-9.93,4.01-10.87
	c5.79-18.27,5.9-33.33,5.89-43.57C445.87,82.36,444.62,64.7,438.81,43.92z"/>
<path class="st8" d="M230.98,345c-2.52-5.26-5.49-9.83-9.61-14.3c-1.05-1.13-1.88-1.93-3.53-3.53
	c-13.48-13.01-20.68-15.36-36.51-27.09l0,0c-8.18-5.84-17.08-13.18-25.91-22.38c-3.44-3.58-6.57-7.13-9.42-10.6
	c-2.75,0.39-5.5,0.79-8.24,1.18c0.54,0.84,1.35,2.07,2.36,3.53c5.47,7.98,14.26,19.79,28.26,31.8c8.56,7.34,37.97,25.56,42.9,31.34
	c2.16,2.53,4.23,5.41,6.52,10.05H230.98z"/>
<path class="st9" d="M202.82,338.74c-1.97-2.39-7.81-6.98-14.87-12.23c-6.46,1.08-10.88,1.9-16.54,3.29
	c-7.84,1.94-14.23,4.04-18.62,5.61c5.95,2.43,13.26,4.87,21.76,6.61c7.65,1.56,14.58,2.2,20.49,2.38c3.98,0.09,7.97,0.18,11.95,0.26
	C205.63,342.34,204.25,340.48,202.82,338.74z"/>
<path class="st9" d="M309,317c-8.72-2.38-28.4-7.06-48.46-5.25c-5.59,0.5-15.13,2.19-24.54,4.25c-6.63,1.45-12.11,2.91-16,4
	c3.14,2.73,6.85,6.43,10.47,11.25c3.48,4.64,5.93,9.08,7.65,12.75c16.5-0.57,44.92-1.42,57.83-1.75c1.89-4,3.91-8.09,6.06-12.25
	C304.32,325.49,306.66,321.16,309,317z"/>
<path class="st9" d="M323.59,343.48c22.89,0.4,45.49,0.88,68.49-1.52c-7.54-4.77-39.32-14.6-59.05-18.84
	C329.3,330.6,326.19,337.39,323.59,343.48z"/>
<path class="st9" d="M163.06,308.2c-5.3,1.89-5.08,1.48-8.74,2.76c-7.19,2.52-13.75,6.36-19.31,12.83c2.73,2.46,5.26,4.87,7.95,7.09
	c0.57,0.47,1.88,0.59,2.57,0.26c9.32-4.46,27.07-9.07,34.05-10.79C173.81,316.14,167.92,311.87,163.06,308.2z"/>
<path class="st9" d="M155.47,301.32c-3.34-2.84-6.39-5.64-9.21-8.37c-5.6,3.02-10.1,6.99-13.57,11.88c-2.28,3.21-2.05,6.23-0.5,9.88
	c7.72-3.93,16.21-7.79,25.46-11.37c0.07-0.03,0.15-0.05,0.22-0.08C156.96,302.55,156.15,301.9,155.47,301.32z"/>
<path class="st9" d="M315,307.44c2.5-5.6,4.93-10.84,7.27-15.71c-1.39-0.44-2.23-0.71-2.22-0.73c-14.65-4.46-35.28-8.52-59.8-6.35
	c-13.83,1.22-53.61,11.81-60.48,13.53c0,0-1.95,0.5-4.54,1.21c6.01,5.16,10.76,8.79,15.44,12.79c7.57-1.66,18.17-3.97,18.45-4.04
	c2.55-0.73,31.86-7.03,51.8-6.23c1.78,0.07,3.05,0.19,5.59,0.42c11.54,1.05,28.45,5.05,28.44,5.09
	C314.97,307.43,314.98,307.43,315,307.44z"/>
<path class="st9" d="M362.73,304.4c-4.55-1.3-11.18-3.05-17.21-4.61c-2.45,4.28-4.9,8.7-7.36,13.35c-0.32,0.61-0.64,1.21-0.95,1.81
	c24.37,5.02,48.07,12.21,70.68,22.94c0.91,0.43,2.16,0.79,3.04,0.51c4.26-1.36,8.45-2.95,12.66-4.46c0.08-0.45,0.15-0.9,0.23-1.35
	c-3.71-2.66-7.25-5.6-11.14-7.95C397.11,315.27,380.09,309.34,362.73,304.4z"/>
<path class="st9" d="M320.91,282.29c1.48,0.43,2.93,0.84,4.38,1.24c3.16-6.34,6.1-11.97,8.71-16.9c-3.64-1.13-6.07-1.84-6.15-1.83
	c-16.89-4.43-39.89-8.07-66.92-5.42c-14.36,1.41-27.18,4.33-38.18,7.75c0-0.04-2.03,0.6-3,0.96c-1.49,0.49-4.34,1.55-4.33,1.58
	c-16.39,5.96-23.13,8.34-26.07,9.33c-3.99,1.34-5.5,1.88-8.52,2.98c-1.62,0.59-2.85,1.05-3.82,1.42c3.62,3.72,7.2,7.11,10.68,10.21
	c12.5-5.03,24.18-8.27,34.58-10.35c0.44,0.06,34.54-8.23,51.31-8.19c10.54,0.03,18.83,0.66,25.99,1.83
	C307.83,278.25,320.93,282.22,320.91,282.29z"/>
<path class="st9" d="M423.87,301.22c-11.67-8.16-24.83-13.37-37.93-18.58c-6.47-2.57-16.29-5.5-25.03-7.91
	c-3.49,5.31-6.95,10.79-10.42,16.56c2.53,0.62,5.03,1.26,7.51,1.97c26.21,7.49,52.41,15.11,73.8,33.49
	c5.64-5.65,6.2-11.22,1.1-17.26C430.29,306.38,427.19,303.54,423.87,301.22z"/>
</svg>
